<?xml version="1.0" encoding="UTF-8"?>
<?xml-model href="https://www.w3.org/Graphics/SVG/1.1/DTD/svg11-flat-20110816.dtd"?>
<svg xmlns="http://www.w3.org/2000/svg" viewBox="0 0 512 512">
    <title>Webcraft Logo</title>
    <g>
        <path d="M71,460 L30,0 481,0 440,460 255,512" fill="#E34F26" />
        <path d="M256,472 L405,431 440,37 256,37" fill="#EF652A" />
    </g>
    <g transform="translate(86, 425) scale(0.075,-0.075)" fill="transparent">
        <g>
            <path d="M0 4455 c0 -245 2 -445 4 -445 2 0 356 194 787 431 431 237 795 437 809 445 21 11 -94 13 -787 14 l-813 0 0 -445z"/>
        </g>
        <g>
            <path d="M1201 4317 c-873 -481 -1050 -582 -1035 -590 11 -6 485 -279 1055 -608 570 -329 1041 -599 1046 -601 6 -2 486 271 1067 606 818 472 1054 612 1044 621 -24 22 -2096 1155 -2109 1154 -8 -1 -488 -262 -1068 -582z" fill="#9DCF66" />
        </g>
        <g>
            <path d="M0 2317 l0 -1153 1058 -582 1057 -581 3 1122 c2 889 -1 1124 -10 1133 -13 12 -2096 1214 -2104 1214 -2 0 -4 -519 -4 -1153z" fill="#7F5E42"/>
        </g>
        <g>
            <path d="M3480 2860 l-1055 -609 -3 -1125 c-1 -620 0 -1126 2 -1126 7 0 2100 1150 2109 1159 4 4 6 525 5 1158 l-3 1152 -1055 -609z" fill="#7F5E42"/>
        </g>
    </g>
</svg>
